<mxfile host="app.diagrams.net" modified="2023-10-23T14:43:05.773Z" agent="Mozilla/5.0 (Windows NT 10.0; Win64; x64) AppleWebKit/537.36 (KHTML, like Gecko) Chrome/118.0.0.0 Safari/537.36 Edg/118.0.2088.61" etag="MS6b8J7B1G2SIzfhTJr3" version="22.0.6" type="device">
  <diagram id="C5RBs43oDa-KdzZeNtuy" name="Page-1">
    <mxGraphModel dx="965" dy="545" grid="1" gridSize="10" guides="1" tooltips="1" connect="1" arrows="1" fold="1" page="1" pageScale="1" pageWidth="827" pageHeight="1169" math="0" shadow="0">
      <root>
        <mxCell id="WIyWlLk6GJQsqaUBKTNV-0" />
        <mxCell id="WIyWlLk6GJQsqaUBKTNV-1" parent="WIyWlLk6GJQsqaUBKTNV-0" />
        <mxCell id="iILRBNatQwQugKxpMPm7-1" value="&lt;h1 style=&quot;box-sizing: border-box; -webkit-font-smoothing: antialiased; text-rendering: optimizelegibility; touch-action: manipulation; margin-top: 0px; line-height: 1.2; color: rgb(0, 35, 88); font-family: Montserrat, Helvetica, Arial, &amp;quot;sans-serif&amp;quot;; text-align: left; background-color: rgb(255, 255, 255); margin-bottom: 1.5rem !important; padding-top: 1.5rem !important;&quot; id=&quot;coinranking-api-documentation&quot;&gt;&lt;font style=&quot;font-size: 10px;&quot;&gt;Coinranking API&lt;/font&gt;&lt;/h1&gt;" style="whiteSpace=wrap;html=1;aspect=fixed;" vertex="1" parent="WIyWlLk6GJQsqaUBKTNV-1">
          <mxGeometry x="280" y="40" width="80" height="80" as="geometry" />
        </mxCell>
        <mxCell id="iILRBNatQwQugKxpMPm7-4" value="" style="swimlane;startSize=0;" vertex="1" parent="WIyWlLk6GJQsqaUBKTNV-1">
          <mxGeometry x="240" width="320" height="200" as="geometry" />
        </mxCell>
        <mxCell id="iILRBNatQwQugKxpMPm7-2" value="&lt;h1 style=&quot;box-sizing: border-box; -webkit-font-smoothing: antialiased; text-rendering: optimizelegibility; touch-action: manipulation; margin-top: 0px; line-height: 1.2; color: rgb(0, 35, 88); font-family: Montserrat, Helvetica, Arial, &amp;quot;sans-serif&amp;quot;; text-align: left; background-color: rgb(255, 255, 255); margin-bottom: 1.5rem !important; padding-top: 1.5rem !important;&quot; id=&quot;coinranking-api-documentation&quot;&gt;&lt;font style=&quot;font-size: 10px;&quot;&gt;Coin API&lt;/font&gt;&lt;/h1&gt;" style="whiteSpace=wrap;html=1;aspect=fixed;" vertex="1" parent="iILRBNatQwQugKxpMPm7-4">
          <mxGeometry x="200" y="40" width="80" height="80" as="geometry" />
        </mxCell>
        <mxCell id="iILRBNatQwQugKxpMPm7-5" value="AWS PHP Api Isoladora&lt;br&gt;" style="text;html=1;align=center;verticalAlign=middle;resizable=0;points=[];autosize=1;strokeColor=none;fillColor=none;" vertex="1" parent="iILRBNatQwQugKxpMPm7-4">
          <mxGeometry x="80" y="140" width="150" height="30" as="geometry" />
        </mxCell>
        <mxCell id="iILRBNatQwQugKxpMPm7-6" value="Orquestrador Node.JS" style="whiteSpace=wrap;html=1;aspect=fixed;" vertex="1" parent="WIyWlLk6GJQsqaUBKTNV-1">
          <mxGeometry x="360" y="240" width="80" height="80" as="geometry" />
        </mxCell>
        <mxCell id="iILRBNatQwQugKxpMPm7-7" value="Formatador em Python" style="whiteSpace=wrap;html=1;aspect=fixed;" vertex="1" parent="WIyWlLk6GJQsqaUBKTNV-1">
          <mxGeometry x="360" y="360" width="80" height="80" as="geometry" />
        </mxCell>
        <mxCell id="iILRBNatQwQugKxpMPm7-8" value="Terminal/Output" style="rounded=1;whiteSpace=wrap;html=1;" vertex="1" parent="WIyWlLk6GJQsqaUBKTNV-1">
          <mxGeometry x="340" y="480" width="120" height="60" as="geometry" />
        </mxCell>
        <mxCell id="iILRBNatQwQugKxpMPm7-9" value="AWS SQL DB" style="shape=cylinder3;whiteSpace=wrap;html=1;boundedLbl=1;backgroundOutline=1;size=15;" vertex="1" parent="WIyWlLk6GJQsqaUBKTNV-1">
          <mxGeometry x="560" y="240" width="100" height="80" as="geometry" />
        </mxCell>
        <mxCell id="iILRBNatQwQugKxpMPm7-10" value="" style="shape=flexArrow;endArrow=classic;startArrow=classic;html=1;rounded=0;exitX=1.057;exitY=0.497;exitDx=0;exitDy=0;exitPerimeter=0;entryX=0;entryY=0.5;entryDx=0;entryDy=0;entryPerimeter=0;" edge="1" parent="WIyWlLk6GJQsqaUBKTNV-1" source="iILRBNatQwQugKxpMPm7-6" target="iILRBNatQwQugKxpMPm7-9">
          <mxGeometry width="100" height="100" relative="1" as="geometry">
            <mxPoint x="450" y="370" as="sourcePoint" />
            <mxPoint x="550" y="270" as="targetPoint" />
          </mxGeometry>
        </mxCell>
        <mxCell id="iILRBNatQwQugKxpMPm7-11" value="" style="shape=flexArrow;endArrow=classic;startArrow=classic;html=1;rounded=0;exitX=0.5;exitY=1;exitDx=0;exitDy=0;entryX=0.5;entryY=0;entryDx=0;entryDy=0;" edge="1" parent="WIyWlLk6GJQsqaUBKTNV-1" source="iILRBNatQwQugKxpMPm7-6" target="iILRBNatQwQugKxpMPm7-7">
          <mxGeometry width="100" height="100" relative="1" as="geometry">
            <mxPoint x="455" y="290" as="sourcePoint" />
            <mxPoint x="570" y="290" as="targetPoint" />
          </mxGeometry>
        </mxCell>
        <mxCell id="iILRBNatQwQugKxpMPm7-13" value="" style="shape=flexArrow;endArrow=classic;startArrow=classic;html=1;rounded=0;exitX=0.5;exitY=1;exitDx=0;exitDy=0;entryX=0.5;entryY=0;entryDx=0;entryDy=0;" edge="1" parent="WIyWlLk6GJQsqaUBKTNV-1" source="iILRBNatQwQugKxpMPm7-7" target="iILRBNatQwQugKxpMPm7-8">
          <mxGeometry width="100" height="100" relative="1" as="geometry">
            <mxPoint x="475" y="310" as="sourcePoint" />
            <mxPoint x="590" y="310" as="targetPoint" />
          </mxGeometry>
        </mxCell>
        <mxCell id="iILRBNatQwQugKxpMPm7-14" value="" style="shape=flexArrow;endArrow=classic;startArrow=classic;html=1;rounded=0;exitX=0.5;exitY=1;exitDx=0;exitDy=0;entryX=0.5;entryY=0;entryDx=0;entryDy=0;" edge="1" parent="WIyWlLk6GJQsqaUBKTNV-1" source="iILRBNatQwQugKxpMPm7-4" target="iILRBNatQwQugKxpMPm7-6">
          <mxGeometry width="100" height="100" relative="1" as="geometry">
            <mxPoint x="485" y="320" as="sourcePoint" />
            <mxPoint x="600" y="320" as="targetPoint" />
          </mxGeometry>
        </mxCell>
      </root>
    </mxGraphModel>
  </diagram>
</mxfile>
